# xmcd
#
# Track frame offsets:
#	182
#	10815
#	21612
#	32735
#	44587
#	56107
#	70252
#	79832
#	90415
#	102847
#	111955
#	124545
#	133207
#	147522
#	160930
#	176170
#
# Disc length: 2543
#
# Revision: 1
# Processed by: cddbd v1.5.1PL0 Copyright (c) Steve Scherf et al.
# Submitted via: dBpowerAMP V4.0
# Normalized: r0:TDELIM( - )
#
DISCID=e509ed10
DTITLE=Various Artist - Les Années 60 vol 1
DYEAR=1900
DGENRE=
TTITLE0=Johnny Hallyday - Laisse les Fille
TTITLE1=Las Fantomes - Shazam
TTITLE2=Les Cyclones - Le Vagabond
TTITLE3=Les Copains - Lucille
TTITLE4=Les Gams - Adieu, Bye, Bye
TTITLE5=José Salcy - Barbara
TTITLE6=Stella - Les Parents Twist
TTITLE7=Micky Amline - Le Soleil de Nos Vacances
TTITLE8=Jean-Jacques Debout - Les Boutons Dorés
TTITLE9=Michel Paije - Adolescence
TTITLE10=Françoise Hardy - Va Prendre un Tambour
TTITLE11=Jacques Dutronc - Mini, Mini, Mini
TTITLE12=Antoine - Je Dis Ce Que Je Pense
TTITLE13=Les Charlots - Je Dis N'importe Quoi
TTITLE14=Sullivan - Les Palais de l'Orient
TTITLE15=Ugo Jurgens - Merci Chèrie
EXTD=
EXTT0=
EXTT1=
EXTT2=
EXTT3=
EXTT4=
EXTT5=
EXTT6=
EXTT7=
EXTT8=
EXTT9=
EXTT10=
EXTT11=
EXTT12=
EXTT13=
EXTT14=
EXTT15=
PLAYORDER=
